<?xml version="1.0" encoding="iso-8859-1"?>
<!-- Generator: Adobe Illustrator 19.0.0, SVG Export Plug-In . SVG Version: 6.00 Build 0)  -->
<svg version="1.1" id="Capa_1" xmlns="http://www.w3.org/2000/svg" xmlns:xlink="http://www.w3.org/1999/xlink" x="0px" y="0px"
	 viewBox="0 0 511.999 511.999" style="enable-background:new 0 0 511.999 511.999;" xml:space="preserve">
<path style="fill:#FEC108;" d="M323.565,382.785c-0.584,0.19-1.154,0.417-1.708,0.681c-4.769,2.293-9.172,5.278-13.067,8.859
	c-1.025,0.852-2.135,1.79-3.161,2.812c-0.512,0.426-0.854,0.766-1.367,1.193l-0.085,0.085h-0.085
	c-9.348,9.504-19.751,17.908-31.006,25.051c-0.085,0.085-0.085,0.085-0.171,0.085c-0.939,0.511-1.878,1.021-2.817,1.448
	c-1.11,0.51-2.305,1.021-3.415,1.447c-2.341,0.874-4.776,1.473-7.256,1.784c-1.187,0.169-2.385,0.253-3.584,0.252
	c-19.371-0.023-37.437-21.122-52.867-34.282c-3.667-3.315-7.735-6.157-12.108-8.463c-0.849-0.443-1.734-0.815-2.644-1.113
	c5.611-12.28,8.005-25.785,6.959-39.246c0.001-1.025,0.002-2.048-0.082-3.158v-0.341c0.011-0.371-0.017-0.744-0.084-1.11v-0.171
	c0.001-1.195-0.083-2.389-0.166-3.584c-0.169-1.963-0.337-3.926-0.505-5.889c-0.099-0.678-0.155-1.363-0.168-2.048
	c-0.169-1.28-0.253-2.475-0.422-3.67c-1.144-9.897-2.813-19.727-5-29.447c10.596,12.512,22.417,23.933,35.288,34.09
	c0.446,0.417,0.931,0.789,1.45,1.112c-0.001,0.047,0.035,0.084,0.082,0.085c0.001,0,0.002,0,0.003,0
	c0.492,0.371,1.004,0.713,1.535,1.026c0.225,0.273,0.52,0.48,0.852,0.598c0.343,0.334,0.749,0.595,1.194,0.769
	c0.945,0.679,1.942,1.28,2.985,1.795c0.341,0.171,0.597,0.342,0.937,0.513c0.457,0.279,0.944,0.508,1.45,0.684
	c2.575,1.222,5.259,2.196,8.018,2.911c0.136,0.132,0.325,0.195,0.512,0.171c1.116,0.347,2.256,0.606,3.413,0.773
	c0.787,0.192,1.584,0.335,2.388,0.429c0.938,0.172,1.963,0.258,2.901,0.344c1.366,0.087,2.645,0.174,4.01,0.175l0.426,0.001
	c1.195,0.001,2.474-0.082,3.67-0.167c1.025-0.084,2.133-0.168,3.158-0.337c1.11-0.169,2.133-0.339,3.158-0.593
	c2.061-0.367,4.089-0.907,6.06-1.615c0.915-0.251,1.801-0.593,2.646-1.02h0.085c0.443-0.163,0.871-0.362,1.281-0.596
	c0.526-0.161,1.039-0.36,1.537-0.595c0.256-0.17,0.512-0.255,0.768-0.425c1.6-0.764,3.142-1.647,4.611-2.64
	c1.638-1.001,3.208-2.111,4.697-3.322c1.709-1.449,3.503-2.897,5.296-4.346c0.426-0.341,0.854-0.766,1.282-1.107
	c3.161-2.726,6.406-5.538,9.567-8.522c1.709-1.534,3.417-3.067,5.04-4.773c5.014-4.813,9.75-9.907,14.184-15.258
	c-2.211,9.714-3.903,19.541-5.07,29.434C315.76,343.607,315.22,367.927,323.565,382.785z"/>
<path style="fill:#FFECB3;" d="M305.885,395.735c-0.597,0.17-1.025,0.425-1.622,0.595l-0.085,0.085h-0.085
	c-4.723,2.327-9.093,5.309-12.982,8.86c-5.723,4.857-11.703,10.653-18.025,16.192c-0.085,0.085-0.085,0.085-0.171,0.085
	c-0.94,0.511-1.878,1.021-2.817,1.448c-1.11,0.51-2.305,1.021-3.415,1.447c-2.341,0.874-4.776,1.473-7.256,1.783
	c-1.187,0.169-2.385,0.253-3.584,0.252c-19.371-0.023-37.437-21.122-52.867-34.282c-3.667-3.315-7.735-6.157-12.108-8.463
	c-0.849-0.443-1.734-0.815-2.644-1.113c5.254-11.245,7.671-23.607,7.04-36.003c0.001-1.11,0.002-2.133-0.082-3.243
	c-0.081-3.84-0.247-7.766-0.584-11.606c-0.07-0.308-0.099-0.623-0.084-0.938c0.937,0.939,1.875,1.794,2.813,2.563
	c3.068,2.649,6.053,5.213,9.036,7.606c0.982,0.796,2.007,1.538,3.069,2.222c0.855,0.676,1.769,1.276,2.728,1.795
	c0.708,0.55,1.482,1.009,2.302,1.369c0.751,0.483,1.551,0.885,2.388,1.198c0.199,0.164,0.432,0.281,0.682,0.342
	c0.085,0,0.085,0,0.171,0.085c1.023,0.428,2.047,0.855,3.155,1.284h0.085c1.475,0.558,2.984,1.016,4.521,1.371
	c1.089,0.338,2.2,0.596,3.328,0.772c0.938,0.172,1.962,0.344,2.9,0.515c6.77,0.851,13.642,0.367,20.226-1.427
	c1.807-0.496,3.575-1.121,5.293-1.871c4.692-1.841,9.07-4.398,12.98-7.579c2.647-2.13,5.381-4.346,8.115-6.817
	c0.085-0.085,0.171-0.085,0.256-0.171c9.751-8.222,18.783-17.261,26.997-27.019c-0.429,1.877-0.944,4.266-1.545,7.08v0.085
	c-1.117,5.887-2.491,13.566-3.526,22.269c-2.413,19.795-2.953,43.772,5.136,58.631C305.7,395.342,305.785,395.543,305.885,395.735z"
	/>
<path style="fill:#CFD8DC;" d="M349.761,383.669l-25.654,44.77l-0.007,6.4c-0.016,0.6-0.073,1.2-0.173,1.792
	c-0.891,3.915-4.356,6.702-8.37,6.731c-0.782,0.011-1.56-0.105-2.304-0.344l-16.549-4.713l-0.256-0.085l-5.716-1.628l-5.29-1.542
	l-5.971-1.714l-0.597-0.171l-0.853-0.257h-0.171c1.732-2.338,2.877-5.059,3.337-7.932c0.171-0.986,0.258-1.986,0.26-2.986
	c-0.013-0.828-0.069-1.653-0.168-2.475c-0.085-0.171-0.085-0.426-0.17-0.597c-0.009-0.676-0.153-1.344-0.425-1.963
	c0.011-0.093-0.02-0.188-0.085-0.256c-0.003-0.159-0.064-0.31-0.171-0.426c-0.022-0.392-0.138-0.773-0.34-1.11
	c-0.109-0.274-0.252-0.532-0.426-0.768c-0.264-0.814-0.637-1.59-1.106-2.305c-5.115-7.435-13.664-11.755-22.684-11.464
	l43.138-36.898l16.657-14.231L349.761,383.669z"/>
<path style="fill:#C52828;" d="M281.448,421.988c-0.002,1.001-0.088,2-0.26,2.986v0.256c-0.053,0.404-0.139,0.804-0.257,1.195
	l-0.257,1.023c-0.028,0.206-0.085,0.408-0.171,0.597c-0.085,0.256-0.171,0.426-0.257,0.682h-0.085c0.085,0.171,0,0.256-0.085,0.426
	h-0.085c-0.106,0.383-0.249,0.755-0.428,1.109c-0.085,0.256-0.257,0.512-0.342,0.767c-0.348,0.656-0.749,1.284-1.197,1.876
	c-0.085,0.085-0.085,0.17-0.171,0.255c-1.156,1.582-2.505,3.013-4.016,4.262c-0.384,0.304-0.783,0.589-1.196,0.852
	c-4.892,3.522-10.791,5.369-16.818,5.269c-1.228,0.001-2.455-0.086-3.67-0.26c-0.952-0.089-1.895-0.261-2.815-0.515
	c-1.344-0.229-2.66-0.602-3.924-1.114c-0.832-0.254-1.632-0.598-2.388-1.027c-0.888-0.387-1.744-0.844-2.558-1.368
	c-0.243-0.15-0.471-0.321-0.682-0.512c-0.36-0.198-0.702-0.427-1.023-0.684c-0.664-0.495-1.29-1.037-1.875-1.624
	c-0.438-0.325-0.838-0.697-1.194-1.111c-0.67-0.701-1.296-1.442-1.875-2.221c-0.085-0.085-0.085-0.171-0.17-0.256
	c-1.089-1.473-1.924-3.118-2.469-4.868c0-0.085-0.085-0.171-0.085-0.256c-0.152-0.444-0.267-0.901-0.339-1.366
	c-0.117-0.391-0.202-0.79-0.254-1.195v-0.256c-0.099-0.506-0.155-1.02-0.169-1.536c-0.071-0.308-0.099-0.624-0.084-0.94l0.001-0.512
	c-0.027-0.688,0.031-1.375,0.173-2.048c0.065-0.662,0.18-1.318,0.343-1.962c0.104-0.439,0.248-0.867,0.428-1.28l0.257-0.767
	c0.176-0.561,0.405-1.103,0.684-1.621c0-0.171,0.085-0.256,0.171-0.426c0.141-0.275,0.313-0.532,0.513-0.767
	c4.969-7.874,13.751-12.511,23.056-12.175c8.902-0.248,17.344,3.954,22.515,11.205c0.343,0.522,0.656,1.064,0.936,1.623
	c0.147,0.209,0.262,0.44,0.34,0.682c0.171,0.085,0.171,0.171,0.171,0.342c0.171,0.085,0.171,0.256,0.171,0.426v0.085
	c0.177,0.326,0.32,0.669,0.425,1.025c0.107,0.117,0.168,0.269,0.171,0.426c0.065,0.068,0.096,0.163,0.085,0.256
	c0.085,0.256,0.17,0.597,0.255,0.938c0.107,0.213,0.165,0.445,0.17,0.682c0.069,0.191,0.099,0.394,0.084,0.597
	c0.059,0.104,0.089,0.222,0.085,0.341C281.38,420.334,281.436,421.161,281.448,421.988z"/>
<g>
	<path style="fill:#F44335;" d="M233.818,433.111l-25.438,7.224l-9.987,2.804c-0.685,0.237-1.408,0.352-2.133,0.339h-0.171
		c-0.488-0.01-0.974-0.068-1.451-0.172c-1.629-0.27-3.142-1.013-4.35-2.138l-0.682-0.683c-0.613-0.774-1.101-1.637-1.448-2.561
		c-0.18-0.471-0.322-0.956-0.425-1.451c-0.099-0.592-0.155-1.191-0.169-1.792l0.04-34.134c0.01-0.488,0.068-0.974,0.172-1.451
		c0.956-4.573,5.406-7.531,9.992-6.645l15.519,9.063l0.255,0.171l17.311,10.176l1.791,1.112l0.17,0.085
		c-0.2,0.235-0.372,0.493-0.513,0.767c-0.085,0.171-0.171,0.256-0.171,0.426c-0.256,0.341-0.342,0.682-0.513,0.937
		c-0.087,0.219-0.145,0.449-0.171,0.682l-0.257,0.767c-0.18,0.413-0.324,0.841-0.428,1.28c-0.197,0.637-0.312,1.296-0.343,1.962
		c-0.142,0.673-0.2,1.361-0.173,2.048l-0.001,0.512c-0.015,0.315,0.013,0.632,0.084,0.939c0.015,0.515,0.071,1.03,0.169,1.536v0.256
		h0.085c0.015,0.403,0.072,0.804,0.169,1.195c0.073,0.465,0.187,0.921,0.339,1.366h0.085c-0.085,0.085,0,0.171,0,0.256
		c0.545,1.749,1.38,3.394,2.469,4.868C233.733,432.941,233.733,433.025,233.818,433.111z"/>
	<path style="fill:#F44335;" d="M324.141,400.706l-0.04,34.134c-0.016,0.6-0.073,1.2-0.173,1.792
		c-0.104,0.495-0.247,0.979-0.428,1.45c-1.23,3.324-4.398,5.533-7.943,5.537h-0.171c-0.726,0.011-1.448-0.106-2.133-0.344
		l-35.401-10.111c0.085-0.085,0.085-0.17,0.171-0.255c0.448-0.592,0.848-1.219,1.197-1.876c0.085-0.256,0.257-0.512,0.342-0.767
		c0.24-0.334,0.414-0.71,0.513-1.109c0.085-0.171,0.171-0.256,0.171-0.426c0.096-0.216,0.156-0.447,0.171-0.682h0.085
		c0-0.085,0.085-0.171,0-0.256c0.085-0.085,0.085-0.256,0.171-0.341l0.257-1.023c0.1-0.391,0.157-0.791,0.172-1.195h0.085v-0.256
		c0.171-0.986,0.258-1.986,0.26-2.986c-0.013-0.828-0.069-1.653-0.168-2.475c-0.067-0.101-0.099-0.221-0.085-0.341
		c0.013-0.203-0.015-0.406-0.084-0.597c-0.016-0.291-0.073-0.579-0.17-0.853l-0.255-0.768c0.011-0.093-0.02-0.188-0.085-0.256
		c-0.003-0.159-0.064-0.31-0.171-0.426c-0.105-0.356-0.248-0.699-0.425-1.025v-0.085c0-0.171,0-0.341-0.171-0.426
		c0-0.171,0-0.256-0.171-0.342c-0.079-0.244-0.193-0.474-0.34-0.682c-0.28-0.559-0.593-1.1-0.936-1.623h0.171l2.304-0.168
		l8.027-4.684l9.308-5.365l0.085-0.085l15.713-9.198c0.535-0.099,1.077-0.155,1.622-0.168c3.486,0.035,6.612,2.158,7.93,5.386
		c0.18,0.471,0.323,0.956,0.425,1.451C324.074,399.731,324.132,400.217,324.141,400.706z"/>
</g>
<g>
	<path style="fill:#FEC108;" d="M164.266,178.339c0,0-19.2-17.066-19.2,17.066s6.4,68.268,25.601,42.667"/>
	<path style="fill:#FEC108;" d="M347.734,178.339c0,0,19.2-17.066,19.2,17.066s-6.4,68.268-25.601,42.667"/>
	<path style="fill:#FEC108;" d="M350.042,147.714c-0.032,6.742-0.9,13.455-2.584,19.983c0,0.089-0.085,0.268-0.086,0.357
		c-6.504,25.022-8.613,50.985-6.235,76.728c0.168,2.142,0.251,4.373,0.249,6.603c-0.122,5.968-1.434,11.852-3.861,17.306
		c-3.703,8.385-8.504,16.241-14.279,23.361c-10.574,13.005-22.423,24.917-35.371,35.56c-3.881,3.311-8.263,5.986-12.981,7.926
		c-1.713,0.783-3.482,1.437-5.293,1.957c-6.569,1.875-13.453,2.383-20.226,1.493c-0.938-0.179-1.962-0.36-2.9-0.539
		c-1.128-0.185-2.24-0.454-3.328-0.807c-1.539-0.371-3.05-0.85-4.521-1.433h-0.085c-1.109-0.447-2.132-0.895-3.155-1.343
		c-0.085-0.089-0.085-0.089-0.171-0.089c-0.252-0.065-0.485-0.188-0.682-0.358c-0.839-0.329-1.64-0.749-2.387-1.252
		c-0.824-0.377-1.598-0.859-2.302-1.43c-0.963-0.544-1.876-1.172-2.728-1.877c-1.065-0.718-2.089-1.493-3.069-2.324
		c-2.984-2.501-5.968-5.182-9.036-7.953l-4.603-4.288c-1.022-0.893-2.046-1.876-2.983-2.859
		c-6.695-6.402-12.931-13.268-18.663-20.545c-1.022-1.34-2.045-2.589-2.982-3.929c-0.256-0.406-0.541-0.794-0.852-1.161
		c-0.17-0.268-0.341-0.447-0.511-0.714c-1.022-1.518-1.959-2.946-2.896-4.465c-1.107-1.696-2.13-3.393-3.066-5.089
		c-0.065-0.16-0.15-0.31-0.255-0.447c-0.851-1.607-1.703-3.124-2.384-4.732c-0.456-0.823-0.826-1.69-1.106-2.588
		c-0.428-0.825-0.77-1.693-1.02-2.589c-0.172-0.198-0.262-0.452-0.255-0.714c-0.264-0.641-0.492-1.296-0.68-1.964
		c-1.324-3.973-2.01-8.129-2.033-12.316c0.003-2.231,0.09-4.461,0.264-6.602c2.453-25.861,0.376-51.952-6.138-77.099
		c-1.668-6.533-2.52-13.247-2.536-19.99c-0.029-3.887,0.289-7.768,0.952-11.598c3.102-19.864,13.312-37.926,28.732-50.825
		l128.513,0.152C339.076,100.684,349.882,123.549,350.042,147.714z"/>
</g>
<path style="fill:#FFECB3;" d="M324.442,147.684c-0.032,6.742-0.9,13.455-2.584,19.983c0,0.089-0.085,0.268-0.086,0.357
	c-6.504,25.022-8.613,50.985-6.235,76.728c0.168,2.142,0.251,4.373,0.249,6.603c-0.03,25.697-29.251,55.732-53.511,76.225
	c-5.518,4.778-12.063,8.22-19.127,10.06c-1.535-0.384-3.046-0.863-4.521-1.433h-0.085c-1.109-0.447-2.132-0.895-3.155-1.343
	c-0.085-0.089-0.085-0.089-0.171-0.089c-0.252-0.065-0.485-0.188-0.682-0.358c-0.839-0.329-1.64-0.749-2.387-1.252
	c-0.824-0.377-1.598-0.859-2.302-1.43c-0.963-0.544-1.876-1.172-2.728-1.877c-1.065-0.718-2.089-1.493-3.069-2.324
	c-2.984-2.501-5.968-5.182-9.036-7.952l-4.603-4.288c-1.022-0.983-1.96-1.876-2.983-2.859c-6.695-6.402-12.932-13.268-18.663-20.545
	c-1.022-1.34-2.045-2.589-2.982-3.929c-0.256-0.406-0.541-0.794-0.852-1.161c-0.17-0.268-0.341-0.447-0.511-0.714
	c-1.022-1.518-1.959-2.946-2.896-4.465c-1.107-1.696-2.13-3.393-3.066-5.089c-0.065-0.16-0.15-0.31-0.255-0.447
	c-0.851-1.607-1.703-3.124-2.384-4.732c-0.456-0.823-0.826-1.69-1.106-2.588c-0.428-0.825-0.77-1.693-1.02-2.589
	c-0.172-0.198-0.262-0.452-0.255-0.714c-0.264-0.641-0.492-1.296-0.68-1.964c-1.324-3.973-2.01-8.129-2.033-12.316
	c0.003-2.231,0.09-4.461,0.264-6.602c2.453-25.861,0.376-51.952-6.138-77.099c-1.668-6.533-2.52-13.247-2.536-19.99
	c-0.029-3.887,0.289-7.768,0.952-11.598c3.102-19.864,13.312-37.926,28.732-50.825l102.914,0.122
	C313.475,100.654,324.281,123.519,324.442,147.684z"/>
<path d="M264.533,263.67h-17.066c-4.713,0-8.533-3.82-8.533-8.533c0-4.713,3.82-8.533,8.533-8.533h17.066
	c4.713,0,8.533,3.82,8.533,8.533C273.066,259.85,269.246,263.67,264.533,263.67z"/>
<path d="M273.067,297.804h-34.134c-4.713,0-8.533-3.82-8.533-8.533c0-4.713,3.82-8.533,8.533-8.533h34.134
	c4.713,0,8.533,3.82,8.533,8.533C281.601,293.984,277.779,297.804,273.067,297.804z"/>
<path d="M256.018,347.255c-13.615,0.028-26.821-4.66-37.371-13.267c-37.488-30.442-56.493-57.243-56.467-79.642
	c0.004-2.383,0.104-4.759,0.296-7.025c2.331-23.229,0.487-46.687-5.442-69.267c-0.194-0.51-0.34-1.038-0.438-1.575
	c-0.095-0.359-0.204-0.783-0.229-0.875c-0.4-1.592-0.783-3.134-1.104-4.817c-0.558-2.917-0.933-5.825-1.212-8.834
	c-0.445-4.691,2.998-8.855,7.689-9.3c4.691-0.445,8.856,2.998,9.3,7.689c0.001,0.009,0.002,0.018,0.002,0.027
	c0.229,2.459,0.529,4.833,0.983,7.208c0.262,1.358,0.574,2.6,0.896,3.867c0.087,0.325,0.204,0.717,0.312,1.158l0.095,0.325
	c6.604,24.732,8.687,50.454,6.146,75.926c-0.15,1.734-0.225,3.625-0.229,5.517c-0.021,16.517,17.801,40.092,50.18,66.385
	c15.441,12.574,37.582,12.609,53.064,0.083c32.463-26.233,50.339-49.767,50.359-66.284c0.004-1.9-0.07-3.8-0.217-5.616
	c-2.386-24.684-0.423-49.595,5.8-73.601c0.037-0.217,0.188-0.766,0.337-1.309c0.062-0.275,0.329-1.258,0.417-1.525
	c1.274-4.835,2.022-9.795,2.229-14.792c0.013-4.592,3.747-8.302,8.338-8.288c0.151,0,0.303,0.005,0.454,0.013
	c4.709,0.148,8.409,4.083,8.267,8.791c-0.237,6.217-1.161,12.387-2.754,18.4c-0.05,0.2-0.279,1.075-0.341,1.275l-0.162,0.692
	c-0.025,0.109-0.25,0.975-0.283,1.092c-5.716,22.108-7.51,45.048-5.3,67.776c0.196,2.375,0.287,4.742,0.283,7.117
	c-0.025,22.392-19.096,49.15-56.675,79.518C282.716,342.635,269.569,347.283,256.018,347.255z"/>
<path d="M195.179,358.939h-0.25c-4.709-0.139-8.416-4.066-8.283-8.775c0.168-8.833-0.289-17.666-1.367-26.434
	c-1.105-9.599-2.725-19.133-4.851-28.559c-1.027-4.6,1.871-9.162,6.471-10.187c4.6-1.027,9.162,1.871,10.187,6.471l0,0
	c2.256,10.018,3.976,20.149,5.151,30.35c1.169,9.567,1.659,19.206,1.466,28.842C203.573,355.263,199.795,358.937,195.179,358.939z"
	/>
<path d="M316.688,359.089c-4.623-0.002-8.404-3.686-8.525-8.308c-0.173-9.649,0.341-19.299,1.538-28.875
	c1.195-10.186,2.936-20.301,5.217-30.3c1.028-4.599,5.588-7.493,10.187-6.465c4.599,1.028,7.493,5.588,6.465,10.187
	c-0.001,0.004-0.002,0.008-0.003,0.012c-2.147,9.42-3.787,18.947-4.912,28.542c-1.104,8.772-1.583,17.611-1.434,26.45
	c0.124,4.711-3.593,8.632-8.304,8.758L316.688,359.089z"/>
<path d="M158.882,255.571c-1.558-0.003-3.104-0.259-4.579-0.758c-4.396-1.466-17.772-5.925-17.772-59.409
	c0-5.75,0-23.242,11.775-28.525c7.598-2.352,15.874-0.406,21.629,5.083c3.517,3.137,3.825,8.53,0.69,12.047
	c-3.115,3.492-8.462,3.825-11.985,0.745c-0.986-0.819-2.091-1.485-3.275-1.975c-1.478,4.036-2.08,8.339-1.767,12.625
	c0,26.717,3.716,38.676,5.841,42.376c1.658-1.423,3.136-3.043,4.4-4.825c2.825-3.77,8.171-4.537,11.942-1.712
	c3.77,2.825,4.537,8.171,1.712,11.942c-0.001,0.001-0.002,0.003-0.003,0.004C173.579,250.011,166.686,254.597,158.882,255.571z"/>
<path d="M353.118,255.571c-7.804-0.974-14.697-5.56-18.608-12.383c-2.827-3.768-2.064-9.115,1.705-11.943
	c3.768-2.827,9.115-2.064,11.943,1.705c0.001,0.001,0.002,0.003,0.003,0.004c1.265,1.782,2.742,3.402,4.4,4.825
	c2.125-3.7,5.841-15.659,5.841-42.376c0.314-4.287-0.289-8.59-1.771-12.625c-1.166,0.479-2.252,1.131-3.225,1.933
	c-3.52,3.132-8.914,2.816-12.046-0.704c-3.132-3.521-2.816-8.914,0.704-12.046c5.753-5.494,14.031-7.439,21.629-5.083
	c11.775,5.283,11.775,22.775,11.775,28.525c0,53.484-13.375,57.943-17.772,59.409C356.222,255.311,354.676,255.568,353.118,255.571z
	"/>
<path d="M230.399,203.937h-34.134c-4.713,0-8.533-3.82-8.533-8.533c0-4.713,3.82-8.533,8.533-8.533h34.134
	c4.713,0,8.533,3.82,8.533,8.533C238.933,200.117,235.112,203.937,230.399,203.937z"/>
<path d="M315.734,203.937h-34.134c-4.713,0-8.533-3.82-8.533-8.533c0-4.713,3.82-8.533,8.533-8.533h34.134
	c4.713,0,8.533,3.82,8.533,8.533C324.268,200.117,320.447,203.937,315.734,203.937z"/>
<path d="M213.333,221.003c-4.712,0.001-8.532-3.817-8.533-8.529c0-0.001,0-0.003,0-0.004v-17.066c0-4.713,3.82-8.533,8.533-8.533
	s8.533,3.82,8.533,8.533v17.066c0.001,4.712-3.817,8.532-8.529,8.533C213.336,221.003,213.334,221.003,213.333,221.003z"/>
<path d="M298.667,221.003c-4.712,0.001-8.532-3.817-8.533-8.529c0-0.001,0-0.003,0-0.004v-17.066c0-4.713,3.82-8.533,8.533-8.533
	s8.533,3.82,8.533,8.533v17.066c0.001,4.712-3.817,8.532-8.529,8.533C298.67,221.003,298.669,221.003,298.667,221.003z"/>
<g>
	<path style="fill:#CFD8DC;" d="M102.398,503.282h-27.82c-8.811-0.003-16.188-6.679-17.066-15.446c0-0.597-0.085-1.11-0.085-1.707
		c0.033-1.767,0.321-3.52,0.853-5.206l11.265-35.413c3.685-9.927,9.023-19.16,15.787-27.307"/>
	<path style="fill:#CFD8DC;" d="M426.669,418.203c6.764,8.147,12.101,17.38,15.787,27.307l11.265,35.413
		c0.532,1.685,0.819,3.439,0.853,5.206c0,0.597-0.085,1.11-0.085,1.707c-0.879,8.767-8.256,15.443-17.066,15.446h-27.821"/>
</g>
<path d="M102.398,511.815H74.581c-13.204,0.032-24.269-9.977-25.559-23.117c-0.028-0.285-0.043-0.571-0.041-0.859
	c-0.017-0.225-0.087-1.483-0.087-1.708c0.031-2.598,0.44-5.178,1.212-7.658l11.304-35.542c4.017-10.98,9.889-21.189,17.359-30.184
	c3.014-3.624,8.396-4.119,12.021-1.104c3.624,3.014,4.119,8.396,1.104,12.021c-6.158,7.398-11.009,15.79-14.351,24.817
	l-11.13,35.026c-0.275,0.849-0.428,1.733-0.454,2.625c0.033,0.425,0.062,0.775,0.075,1.109c0.551,4.298,4.212,7.516,8.546,7.509
	h27.734c4.713-0.023,8.552,3.779,8.575,8.492C110.913,507.953,107.111,511.793,102.398,511.815z"/>
<path d="M162.453,391.555h-0.425c-4.713,0-8.533-3.82-8.533-8.533c0-4.713,3.82-8.533,8.533-8.533
	c4.756-0.018,8.647,3.78,8.746,8.533c0.1,4.611-3.558,8.432-8.169,8.531C162.554,391.555,162.504,391.555,162.453,391.555z"/>
<g>
	<path style="fill:#F44335;" d="M426.521,418.407l-0.085,0.085l-17.082,84.717v0.256l-85.334-0.102v-0.256l25.742-119.182
		l0.001-0.682l3.073,0.004c12.566,0.033,25.003,2.542,36.6,7.382c1.023,0.428,2.047,0.857,3.07,1.369
		c10.378,4.789,19.819,11.388,27.881,19.489C422.516,413.708,424.647,416.015,426.521,418.407z"/>
	<path style="fill:#F44335;" d="M187.485,502.944v0.256l-85.334-0.102v-0.256L85.27,418.085L85.185,418
		c1.88-2.387,4.016-4.688,6.152-6.905c8.082-8.082,17.538-14.659,27.928-19.422c1.025-0.51,2.049-0.936,3.074-1.362
		c11.609-4.813,24.051-7.292,36.617-7.295l3.073,0.004l-0.001,0.682L187.485,502.944z"/>
</g>
<path d="M409.352,511.999h-0.008l-85.334-0.1c-4.709-0.005-8.524-3.824-8.525-8.533c-0.001-0.691,0.063-1.38,0.192-2.058
	l25.679-118.902c0.632-4.233,4.141-7.445,8.413-7.701h0.021l3.07,0.008c13.686,0.022,27.232,2.755,39.855,8.042
	c1.245,0.516,2.438,1.016,3.634,1.625c11.199,5.186,21.384,12.325,30.079,21.084c2.438,2.533,4.763,5.067,6.813,7.675
	c1.779,2.268,2.292,5.28,1.363,8.008l-16.841,83.534C417.076,508.823,413.547,511.893,409.352,511.999L409.352,511.999z
	 M334.535,494.84l67.784,0.083l14.971-74.243c-0.995-1.117-2.029-2.209-3.058-3.283c-7.316-7.339-15.88-13.315-25.292-17.65
	c-1.092-0.541-1.912-0.875-2.725-1.216c-9.351-3.919-19.315-6.172-29.442-6.658L334.535,494.84z"/>
<g>
	<g>
		<path id="SVGCleanerId_0" style="fill:#F5F5F5;" d="M281.352,503.056v0.256l-93.868-0.112v-0.256l-25.458-119.242v-0.171
			l0.085,0.171l0.171,0.171l0.681,1.196l4.343,7.685l0.426,0.683l0.681,1.195l1.363,2.476l1.022,1.708l16.776,29.46l-0.007,6.4
			c0.013,0.6,0.071,1.2,0.169,1.792c0.102,0.495,0.244,0.98,0.425,1.451c0.346,0.924,0.835,1.789,1.448,2.561
			c0.205,0.249,0.433,0.478,0.682,0.683c1.208,1.125,2.721,1.87,4.35,2.138c0.477,0.105,0.962,0.163,1.451,0.172h0.171
			l33.892,59.518L281.352,503.056z"/>
	</g>
	<g>
		<path id="SVGCleanerId_0_1_" style="fill:#F5F5F5;" d="M281.352,503.056v0.256l-93.868-0.112v-0.256l-25.458-119.242v-0.171
			l0.085,0.171l0.171,0.171l0.681,1.196l4.343,7.685l0.426,0.683l0.681,1.195l1.363,2.476l1.022,1.708l16.776,29.46l-0.007,6.4
			c0.013,0.6,0.071,1.2,0.169,1.792c0.102,0.495,0.244,0.98,0.425,1.451c0.346,0.924,0.835,1.789,1.448,2.561
			c0.205,0.249,0.433,0.478,0.682,0.683c1.208,1.125,2.721,1.87,4.35,2.138c0.477,0.105,0.962,0.163,1.451,0.172h0.171
			l33.892,59.518L281.352,503.056z"/>
	</g>
	<path style="fill:#F5F5F5;" d="M315.386,443.618l-34.033,59.438l-51.2-0.061l-33.892-59.518c0.726,0.012,1.448-0.102,2.133-0.339
		l9.987-2.804l25.438-7.224c0.579,0.779,1.205,1.52,1.875,2.221c0.356,0.414,0.756,0.786,1.194,1.111
		c0.585,0.586,1.211,1.129,1.875,1.624c0.32,0.257,0.663,0.486,1.023,0.684c0.212,0.191,0.44,0.363,0.682,0.512
		c0.815,0.524,1.671,0.982,2.558,1.368c0.756,0.429,1.558,0.774,2.388,1.027c1.264,0.511,2.58,0.885,3.924,1.114
		c0.922,0.254,1.863,0.426,2.815,0.515c1.215,0.175,2.442,0.262,3.67,0.26c6.027,0.1,11.925-1.749,16.816-5.271
		c0.413-0.263,0.812-0.548,1.196-0.852c1.511-1.249,2.86-2.68,4.016-4.262l35.401,10.111
		C313.938,443.514,314.66,443.63,315.386,443.618z"/>
</g>
<g>
	<g>
		<path id="SVGCleanerId_0_2_" style="fill:#C52828;" d="M281.352,503.056v0.256l-93.868-0.112v-0.256l-25.458-119.242v-0.171
			l0.085,0.171l0.171,0.171l0.681,1.196l4.343,7.685l0.426,0.683l0.681,1.195l1.363,2.476l1.022,1.708l16.776,29.46l-0.007,6.4
			c0.013,0.6,0.071,1.2,0.169,1.792c0.102,0.495,0.244,0.98,0.425,1.451c0.346,0.924,0.835,1.789,1.448,2.561
			c0.205,0.249,0.433,0.478,0.682,0.683c1.208,1.125,2.721,1.87,4.35,2.138c0.477,0.105,0.962,0.163,1.451,0.172h0.171
			l33.892,59.518L281.352,503.056z"/>
	</g>
	<path style="fill:#C52828;" d="M349.761,383.669v0.256l-25.743,119.182v0.256l-42.667-0.051v-0.256l34.033-59.438h0.171
		c3.544-0.004,6.713-2.213,7.943-5.537c0.181-0.471,0.325-0.956,0.428-1.45c0.1-0.592,0.158-1.191,0.173-1.792l0.007-6.4
		L349.761,383.669z"/>
</g>
<path d="M281.351,511.849h-0.012l-93.868-0.117c-4.388-0.005-8.057-3.34-8.479-7.709l-25.312-118.534
	c-0.125-0.586-0.188-1.184-0.188-1.784c-0.005-3.977,2.709-7.442,6.571-8.392c3.441-0.839,7.042,0.537,9.045,3.458
	c0.221,0.285,0.421,0.586,0.6,0.9l25.283,44.376c0.732,1.291,1.117,2.749,1.117,4.233l-0.008,6.4
	c0.021,0.233-0.254-0.017-0.725-0.367c0.249,0.184,0.486,0.381,0.712,0.592c3.117,0.011,5.999,1.66,7.587,4.342l31.438,55.226
	l46.247,0.05c4.709,0.005,8.524,3.824,8.525,8.533v0.258c0.003,4.71-3.813,8.531-8.524,8.533c-0.003,0-0.006,0-0.01,0
	L281.351,511.849z M194.445,494.673l21.158,0.025l-24.796-43.551c-2.35-0.773-4.507-2.044-6.321-3.725l0.004-0.008l-0.171-0.159
	L194.445,494.673z M194.965,434.032l0.017,0.008L194.965,434.032z"/>
<path d="M437.419,511.815h-27.734c-4.713,0.023-8.552-3.779-8.575-8.492c-0.023-4.713,3.779-8.552,8.492-8.575h27.817
	c4.33,0.006,7.99-3.206,8.546-7.5c0.012-0.316,0.033-0.625,0.058-0.942c0.002-0.998-0.16-1.988-0.479-2.934l-11.221-35.276
	c-3.333-8.886-8.139-17.145-14.217-24.434c-3.014-3.624-2.52-9.006,1.104-12.021c3.624-3.014,9.006-2.52,12.021,1.104
	c7.391,8.884,13.216,18.961,17.225,29.8l11.395,35.792c0.796,2.522,1.219,5.147,1.255,7.792c0,0.225-0.054,1.292-0.071,1.517
	l-0.058,1.049C461.689,501.839,450.623,511.848,437.419,511.815z"/>
<path d="M349.764,391.772h-0.429c-4.713,0-8.533-3.82-8.533-8.533c0-4.713,3.82-8.533,8.533-8.533
	c4.756-0.019,8.649,3.779,8.75,8.533c0.1,4.611-3.558,8.432-8.169,8.531C349.865,391.771,349.814,391.772,349.764,391.772z"/>
<path style="fill:#F57C00;" d="M325.803,14.828C306.177,24.47,282.027,41.793,256,41.793c-65.963,0-119.468,13.654-119.468,72.535
	c-0.033,4.314,0.281,8.622,0.938,12.885c1.032,7.843,3.038,15.524,5.973,22.869c2.764,6.963,6.283,13.603,10.496,19.798l8.192-0.085
	l39.339-50.177l2.474-3.158c4.385-6.572,13.268-8.346,19.84-3.96c0.337,0.225,0.665,0.465,0.982,0.718h0.085
	c4.274,3.262,9.023,5.853,14.08,7.68c12.207,4.28,25.576,3.822,37.461-1.28c3.806-1.737,7.411-3.883,10.752-6.4h0.085
	c6.176-4.928,15.177-3.915,20.105,2.261c0.253,0.317,0.493,0.644,0.718,0.982l26.283,33.537l15.531,19.798l5.376,3.84
	c13.025-17.036,20.128-37.863,20.224-59.307C375.468,3.393,355.926,0.065,325.803,14.828z"/>
<path style="fill:#FF9801;" d="M341.334,114.328c-0.012,12.23-2.388,24.342-6.997,35.67l-26.283-33.537
	c-4.385-6.572-13.268-8.346-19.84-3.96c-0.337,0.225-0.665,0.465-0.982,0.718h-0.085c-3.341,2.517-6.947,4.663-10.752,6.4
	c-11.887,5.103-25.255,5.559-37.461,1.28c-5.057-1.827-9.806-4.417-14.08-7.68h-0.085c-6.176-4.928-15.177-3.915-20.105,2.261
	c-0.253,0.317-0.493,0.644-0.718,0.982l-2.474,3.158l-39.339,50.177l-8.192,0.085c-4.213-6.195-7.733-12.833-10.496-19.798
	c-2.936-7.345-4.942-15.028-5.973-22.869c-0.657-4.263-0.972-8.573-0.938-12.885c0-58.881,53.504-72.535,119.468-72.535
	c26.027,0,50.177-17.323,69.803-26.965C335.702,26.092,341.334,54.679,341.334,114.328z"/>
<path d="M355.235,182.17c-1.777,0.001-3.51-0.556-4.955-1.592l-5.375-3.842c-0.662-0.473-1.252-1.036-1.755-1.675l-41.813-53.334
	c-1.067-1.561-2.688-2.658-4.534-3.066c-1.572-0.213-3.16,0.264-4.354,1.309c-0.274,0.216-0.562,0.414-0.863,0.592
	c-21.15,15.676-50.067,15.665-71.205-0.025c-0.29-0.17-0.569-0.359-0.834-0.567c-1.197-1.041-2.782-1.518-4.354-1.309
	c-1.824,0.399-3.428,1.475-4.492,3.008l-41.855,53.392c-1.598,2.04-4.038,3.243-6.629,3.266l-8.192,0.083
	c-2.831-0.085-5.466-1.464-7.15-3.741c-9.456-13.857-15.571-29.716-17.867-46.334c-0.713-4.634-1.053-9.319-1.012-14.008
	c0-72.667,73.051-81.068,128.002-81.068c18.104,0,36.138-9.908,52.046-18.642c18.746-10.317,36.442-20.05,51.563-11.091
	C376.934,13.777,384,45.877,384,114.328c-0.074,23.302-7.781,45.938-21.942,64.442C360.448,180.915,357.918,182.176,355.235,182.17z
	 M346.334,17.109c-10.76,2.094-20.986,6.334-30.071,12.466C298.555,39.3,278.488,50.326,256,50.326
	c-98.326,0-110.935,34.2-110.935,64.001c-0.034,3.854,0.242,7.706,0.825,11.517c1.649,12.408,5.872,24.336,12.4,35.016
	l38.938-49.668c3.718-4.98,9.205-8.341,15.329-9.392c5.854-0.891,11.821,0.568,16.604,4.059c0.31,0.176,0.607,0.373,0.888,0.592
	c15.316,11.717,36.584,11.717,51.9,0c0.292-0.228,0.601-0.434,0.925-0.617c4.774-3.477,10.728-4.927,16.567-4.034
	c6.147,1.059,11.651,4.442,15.371,9.45l38.85,49.55c8.641-13.965,13.235-30.053,13.271-46.475c0-71.609-8.708-91.793-16.013-96.109
	C349.522,17.44,347.936,17.057,346.334,17.109L346.334,17.109z"/>
<path d="M354.139,183.436c-4.673-0.02-8.444-3.824-8.424-8.497c0.007-1.605,0.471-3.176,1.337-4.527l0.805-1.117
	c2.651-3.957,7.972-5.08,11.996-2.533c3.882,2.464,5.031,7.608,2.568,11.491c-0.03,0.048-0.061,0.095-0.092,0.143l-0.805,1.117
	C359.862,181.96,357.097,183.429,354.139,183.436z"/>
<path d="M157.87,183.703c-2.594,0.006-5.049-1.172-6.667-3.2c-1.462-1.833-2.837-3.75-4.208-5.667
	c-2.73-3.842-1.829-9.17,2.013-11.9c3.831-2.722,9.141-1.835,11.879,1.984c1.187,1.666,2.37,3.334,3.642,4.916
	c2.946,3.678,2.353,9.048-1.325,11.994C161.689,183.042,159.808,183.703,157.87,183.703z"/>
<path d="M281.351,511.59h-0.008l-51.2-0.058c-3.064-0.002-5.891-1.647-7.408-4.309l-33.892-59.526
	c-2.331-4.099-0.899-9.311,3.199-11.643c1.243-0.707,2.645-1.091,4.075-1.116l35.371-10.034c3.336-0.949,6.914,0.218,9.051,2.95
	c0.373,0.509,0.777,0.997,1.208,1.458c0.208,0.217,0.409,0.433,0.596,0.667c0.892,0.741,1.183,0.991,1.513,1.233
	c0.546,0.265,1.048,0.614,1.488,1.033c0.389,0.229,0.792,0.432,1.208,0.609c0.304,0.1,1.955,0.842,2.246,0.966
	c0.691,0.26,1.405,0.45,2.133,0.567c0.674,0.187,1.36,0.324,2.054,0.409c0.948,0.153,1.907,0.226,2.867,0.217
	c4.174,0.088,8.267-1.162,11.679-3.567l6.109,6.125l-5.192-6.776c0.937-0.768,1.773-1.654,2.488-2.633
	c2.107-2.907,5.805-4.188,9.259-3.208l35.4,10.108l0.066,0.025c4.707,0.146,8.404,4.082,8.256,8.788
	c-0.044,1.399-0.43,2.766-1.127,3.979l-34.034,59.443C287.232,509.951,284.409,511.588,281.351,511.59z M235.112,494.473
	l41.292,0.042l26.042-45.475l-21.829-6.217c-0.433,0.4-0.879,0.791-1.338,1.167c-0.714,0.578-1.463,1.112-2.242,1.6
	c-6.227,4.323-13.65,6.593-21.23,6.492c-1.618,0.002-3.232-0.112-4.833-0.341c-2.892-0.424-5.74-1.116-8.504-2.067
	c-1.242-0.41-2.442-0.936-3.584-1.575c-1.093-0.484-2.143-1.061-3.138-1.725c-0.304-0.2-0.58-0.4-0.83-0.592
	c-0.438-0.275-0.875-0.584-1.305-0.908c-0.846-0.633-1.652-1.317-2.412-2.05l-0.083-0.075l-21.917,6.217L235.112,494.473z
	 M195.991,434.973c-0.186,0.037-0.369,0.09-0.546,0.159L195.991,434.973z"/>
<path d="M315.384,452.148c-1.757,0.017-3.502-0.285-5.151-0.892l-29.617-8.434c-0.433,0.4-0.879,0.791-1.338,1.167
	c-0.714,0.578-1.463,1.112-2.242,1.6c-6.227,4.323-13.65,6.593-21.23,6.491c-1.618,0.002-3.232-0.112-4.833-0.341
	c-1.32-0.134-2.627-0.382-3.904-0.741c-1.576-0.281-3.119-0.725-4.604-1.325c-1.24-0.411-2.439-0.937-3.58-1.575
	c-1.093-0.484-2.143-1.061-3.138-1.725c-0.304-0.2-0.58-0.4-0.83-0.592c-0.438-0.275-0.875-0.584-1.305-0.908
	c-0.846-0.633-1.652-1.317-2.412-2.05l-0.083-0.075l-30.421,8.608c-1.461,0.502-3.003,0.723-4.546,0.65
	c-2.781-0.035-5.37-1.422-6.941-3.716c-1.81-2.645-2.035-6.065-0.588-8.925c1.427-2.823,4.3-4.623,7.463-4.675l35.23-10.042
	c3.5-0.954,7.228,0.316,9.417,3.208c3.679,4.531,9.262,7.082,15.096,6.9h0.037c5.824,0.188,11.401-2.352,15.085-6.867
	c2.237-2.904,6.016-4.151,9.542-3.15l35.096,10.067c4.718,0.018,8.528,3.856,8.51,8.575c-0.006,1.714-0.529,3.387-1.498,4.801
	l-0.171,0.25C320.838,450.757,318.202,452.147,315.384,452.148z M195.991,434.973c-0.186,0.037-0.369,0.09-0.546,0.159
	L195.991,434.973z"/>
<path style="fill:#CFD8DC;" d="M255.874,400.625c-8.902-0.269-17.354,3.913-22.542,11.152l-2.474-0.173L212.694,401
	c-0.085-0.085-0.085-0.171-0.171-0.171l-14.753-8.637c-4.587-0.908-9.04,2.074-9.949,6.659c-0.016,0.08-0.03,0.16-0.044,0.241
	c-0.105,0.477-0.163,0.962-0.172,1.451l-0.033,27.734l-25.547-44.831l34.174-34.093L255.874,400.625z"/>
<path d="M187.574,436.806c-3.065,0-5.895-1.645-7.412-4.309l-25.546-44.826c-1.907-3.343-1.339-7.55,1.387-10.267l34.171-34.092
	c3.158-3.147,8.204-3.336,11.588-0.433l59.675,51.268c3.574,3.074,3.981,8.464,0.907,12.038c-1.621,1.885-3.983,2.97-6.47,2.971
	h-0.025c-6.016-0.258-11.772,2.471-15.379,7.292c-1.706,2.56-4.641,4.022-7.713,3.842l-2.474-0.167
	c-1.315-0.091-2.591-0.484-3.729-1.15l-18.164-10.608c-0.288-0.167-0.566-0.351-0.834-0.55l-11.438-6.7l-0.012,27.167
	C196.102,432.99,192.284,436.805,187.574,436.806L187.574,436.806z M217.654,394.014l13.108,7.65
	c2.17-2.031,4.598-3.768,7.221-5.167l-41.35-35.517l-23.963,23.909l6.838,12c1.979-9.048,10.824-14.857,19.913-13.075
	c0.936,0.188,1.836,0.528,2.663,1.008l14.754,8.642l-0.004,0.008C217.117,393.638,217.391,393.818,217.654,394.014L217.654,394.014z
	"/>
<path d="M324.018,511.898h-0.008l-42.667-0.05c-4.709-0.005-8.524-3.824-8.525-8.533c-0.001-1.57,0.387-3.116,1.129-4.5
	l34.034-59.442c1.677-2.894,4.881-4.552,8.213-4.249l-0.617-6.692c0.002-1.485,0.391-2.944,1.129-4.233l25.65-44.767
	c2.339-4.09,7.552-5.509,11.642-3.169c2.658,1.52,4.297,4.349,4.295,7.411v0.25c0.001,0.606-0.063,1.209-0.192,1.8l-25.692,118.96
	C331.683,508.776,328.175,511.794,324.018,511.898L324.018,511.898z M295.913,494.799l21.163,0.025l10.25-47.467
	c-1.843,1.8-4.073,3.154-6.52,3.958L295.913,494.799z"/>
<path d="M315.555,451.899c-1.708,0.015-3.406-0.255-5.025-0.799l-34.722-9.95c-4.59-1.186-7.348-5.868-6.162-10.458
	c0.256-0.991,0.688-1.929,1.273-2.768c0.941-1.231,1.567-2.672,1.825-4.2c0.105-0.583,0.162-1.174,0.171-1.766
	c0-0.283-0.025-0.567-0.054-0.859c-0.117-0.449-0.199-0.905-0.246-1.367l-0.033-0.1c-0.163-0.384-0.299-0.78-0.404-1.183
	c-0.274-0.503-0.502-1.031-0.679-1.575c-3.579-5.044-9.458-7.944-15.637-7.717c-4.712-0.006-8.527-3.831-8.521-8.543
	c0.003-2.491,1.095-4.856,2.989-6.475l59.792-51.126c3.387-2.905,8.441-2.704,11.588,0.458l34.092,34.175
	c2.717,2.724,3.275,6.929,1.363,10.267l-24.525,42.801l-0.004,4.133c-0.013,1.003-0.101,2.002-0.262,2.992
	C330.816,445.926,323.788,451.801,315.555,451.899z M289.446,427.322l26.142,7.484l-0.012-6.375
	c0.002-1.485,0.391-2.944,1.129-4.233l22.409-39.109l-23.908-23.976l-41.409,35.408c4.894,2.576,9.033,6.385,12.004,11.05
	c0.628,0.995,1.168,2.044,1.612,3.134c0.15,0.275,0.308,0.584,0.458,0.933c0.378,0.771,0.664,1.586,0.85,2.425
	c0.423,1.093,0.705,2.236,0.842,3.4c0.101,0.399,0.17,0.807,0.208,1.216c0.128,1.098,0.198,2.202,0.213,3.308
	c-0.002,1.469-0.13,2.936-0.38,4.383C289.559,426.69,289.504,427.006,289.446,427.322L289.446,427.322z"/>
<path d="M255.875,451.823h-0.071c-11.308,0.217-22.041-4.971-28.896-13.967c-6.655-9.096-6.936-21.376-0.704-30.767
	c6.773-9.618,17.885-15.239,29.646-15h0.033c17.64-1.053,32.844,12.282,34.101,29.908v0.008c-0.005,5.738-1.845,11.324-5.25,15.942
	C277.869,446.9,267.154,452.052,255.875,451.823z M255.846,409.156c-6.014-0.257-11.769,2.472-15.375,7.292
	c-1.086,1.627-1.673,3.536-1.687,5.492c-0.011,2.123,0.669,4.19,1.937,5.892c3.676,4.545,9.266,7.107,15.109,6.925h0.037
	c5.824,0.188,11.401-2.352,15.084-6.867c1.27-1.712,1.96-3.785,1.967-5.917c0-6.941-7.804-12.809-17.05-12.817L255.846,409.156z"/>
<path d="M196.087,451.756h-0.017c-8.022-0.053-14.942-5.644-16.68-13.475c-0.986-4.61,1.953-9.146,6.562-10.131
	c4.592-0.982,9.114,1.929,10.122,6.515c4.72,0.011,8.536,3.847,8.525,8.567C204.587,447.93,200.785,451.738,196.087,451.756
	L196.087,451.756z"/>
<path d="M324.109,436.972h-0.008c-4.712-0.006-8.528-3.829-8.525-8.541l0.033-27.159l-30.446,17.759
	c-4.062,2.387-9.289,1.03-11.676-3.031c-2.387-4.061-1.03-9.289,3.031-11.676c0.015-0.008,0.03-0.018,0.045-0.026l33.134-19.333
	c0.833-0.49,1.743-0.835,2.692-1.016c9.272-1.766,18.22,4.318,19.985,13.589c0.199,1.047,0.301,2.111,0.302,3.177l-0.033,27.734
	C332.637,433.157,328.819,436.972,324.109,436.972z"/>
<path d="M144.807,511.457c-3.974-0.005-7.418-2.752-8.308-6.625l-25.467-110.96c-1.046-4.595,1.831-9.168,6.426-10.214
	c4.583-1.043,9.148,1.817,10.207,6.397l25.467,110.96c1.056,4.591-1.811,9.168-6.402,10.223c-0.002,0-0.004,0.001-0.006,0.001
	C146.095,511.386,145.452,511.459,144.807,511.457z"/>
<path d="M187.482,511.732h-0.008l-85.334-0.1c-4.422-0.005-8.107-3.387-8.492-7.792l-16.645-83.576
	c-0.731-2.609-0.18-5.411,1.483-7.55c2.05-2.6,4.375-5.116,6.708-7.542c8.821-8.855,19.16-16.055,30.525-21.259
	c0.954-0.483,2.145-0.983,3.35-1.483c12.6-5.243,26.112-7.944,39.758-7.95h0.138l3.088,0.008c4.623,0.01,8.396,3.703,8.504,8.325
	l25.272,118.343c0.125,0.586,0.188,1.184,0.188,1.784v0.258c0.003,4.71-3.813,8.531-8.524,8.533
	C187.49,511.732,187.486,511.732,187.482,511.732L187.482,511.732z M109.202,494.574l67.784,0.083L154.99,391.63
	c-10.106,0.461-20.055,2.684-29.396,6.567c-0.842,0.349-1.687,0.7-2.537,1.117c-9.561,4.359-18.264,10.397-25.696,17.825
	c-0.966,1.008-1.971,2.067-2.95,3.159L109.202,494.574z"/>
<path d="M366.693,511.724c-4.704,0.016-8.529-3.784-8.546-8.488c-0.002-0.664,0.073-1.325,0.224-1.971l25.733-110.901
	c1.056-4.593,5.634-7.46,10.227-6.404c4.593,1.056,7.46,5.634,6.404,10.227c-0.002,0.009-0.004,0.019-0.006,0.028l-25.732,110.901
	C374.1,508.979,370.66,511.717,366.693,511.724z"/>
<g>
</g>
<g>
</g>
<g>
</g>
<g>
</g>
<g>
</g>
<g>
</g>
<g>
</g>
<g>
</g>
<g>
</g>
<g>
</g>
<g>
</g>
<g>
</g>
<g>
</g>
<g>
</g>
<g>
</g>
</svg>
